<svg id="logosandtypes_com" xmlns="http://www.w3.org/2000/svg" viewBox="0 0 150 150.2"><path d="M0 .2h150v150H0V.2z" fill="none"/><path d="M44.5 61.5c-6.3 2.3-13.4-.9-15.8-7.3s.9-13.4 7.3-15.8l67.8-24.9c6.3-2.3 13.4.9 15.8 7.3 2.3 6.3-.9 13.4-7.3 15.8L44.5 61.5zm0 36.7c-6.3 2.3-13.4-.9-15.8-7.3s.9-13.4 7.3-15.8l67.8-24.9c6.3-2.3 13.4.9 15.8 7.3 2.3 6.3-.9 13.4-7.3 15.8L44.5 98.2zm0 36.7c-6.3 2.3-13.4-.9-15.8-7.3-2.3-6.3.9-13.4 7.3-15.8L103.8 87c6.3-2.3 13.4.9 15.8 7.3 2.3 6.3-.9 13.4-7.3 15.8l-67.8 24.8z" fill="#002661"/></svg>